<?xml version="1.0" encoding="utf-8"?>
<!-- Generator: Adobe Illustrator 22.0.0, SVG Export Plug-In . SVG Version: 6.00 Build 0)  -->
<svg version="1.1" id="Layer_1" xmlns="http://www.w3.org/2000/svg" xmlns:xlink="http://www.w3.org/1999/xlink" x="0px" y="0px"
	 viewBox="0 0 35 35" style="enable-background:new 0 0 35 35;" xml:space="preserve">
<style type="text/css">
	.st0{fill:#765AFF;}
</style>
<g>
	<path class="st0" d="M34,6.2C34,6.2,34,6.2,34,6.2l-9.3,0v-1c0-1.7-1.4-3.1-3.1-3.1h-8.2c-1.7,0-3.1,1.4-3.1,3.1v1H1
		c-0.6,0-1,0.5-1,1v22.6c0,1.7,1.4,3.1,3.1,3.1h28.8c1.7,0,3.1-1.4,3.1-3.1V7.3C35,6.6,34.5,6.2,34,6.2L34,6.2z M12.4,5.2
		c0-0.6,0.5-1,1-1h8.2c0.6,0,1,0.5,1,1v1H12.4V5.2z M32.6,8.3l-3.2,9.6c-0.1,0.4-0.5,0.7-1,0.7h-5.8v-1c0-0.6-0.5-1-1-1h-8.2
		c-0.6,0-1,0.5-1,1v1H6.6c-0.4,0-0.8-0.3-1-0.7L2.4,8.3H32.6z M20.6,18.5v2.1h-6.2v-2.1H20.6z M32.9,29.8c0,0.6-0.5,1-1,1H3.1
		c-0.6,0-1-0.5-1-1V13.6l1.6,4.9c0.4,1.3,1.6,2.1,2.9,2.1h5.8v1c0,0.6,0.5,1,1,1h8.2c0.6,0,1-0.5,1-1v-1h5.8c1.3,0,2.5-0.8,2.9-2.1
		l1.6-4.9V29.8z M32.9,29.8"/>
</g>
</svg>
