<?xml version="1.0" encoding="utf-8"?>
<!-- Generator: Adobe Illustrator 22.0.0, SVG Export Plug-In . SVG Version: 6.00 Build 0)  -->
<svg version="1.1" id="Layer_1" xmlns="http://www.w3.org/2000/svg" xmlns:xlink="http://www.w3.org/1999/xlink" x="0px" y="0px"
	 viewBox="0 0 35 35" style="enable-background:new 0 0 35 35;" xml:space="preserve">
<style type="text/css">
	.st0{fill:#765AFF;}
</style>
<path class="st0" d="M30.9,31"/>
<path class="st0" d="M7.5,0.4v2.9H0.4v31.4h34.2V3.2h-7.1V0.4h-2.9v2.9h-5.7V0.4h-2.9v2.9h-5.7V0.4H7.5z M32.6,32.6H2.4v-21h30.2
	V32.6z M16.1,5.2h16.5v4.4H2.4V5.2H16.1z M16.1,6.1"/>
<path class="st0" d="M15.2,22.1c0,0-0.3,2.7,0,2.9c0.2,0.2,2.7-0.9,2.7-0.9s2.6,1,2.7,0.9c0.2-0.2,0-2.9,0-2.9s1.8-2,1.7-2.3
	c-0.1-0.3-2.7-0.8-2.7-0.8s-1.3-2.3-1.6-2.3c-0.3,0-1.6,2.3-1.6,2.3s-2.6,0.6-2.7,0.8C13.4,20.1,15.2,22.1,15.2,22.1z M15.2,22.1"/>
</svg>
