<?xml version="1.0" encoding="utf-8"?>
<!-- Generator: Adobe Illustrator 22.0.0, SVG Export Plug-In . SVG Version: 6.00 Build 0)  -->
<svg version="1.1" id="Layer_1" xmlns="http://www.w3.org/2000/svg" xmlns:xlink="http://www.w3.org/1999/xlink" x="0px" y="0px"
	 viewBox="0 0 35 35" style="enable-background:new 0 0 35 35;" xml:space="preserve">
<style type="text/css">
	.st0{fill:none;stroke:#765AFF;stroke-width:2;stroke-miterlimit:10;}
</style>
<g>
	<path class="st0" d="M10.3,17.5c3.4,0,6.1-2.7,6.1-6s-2.7-6-6.1-6c-3.4,0-6.1,2.7-6.1,6S6.9,17.5,10.3,17.5z"/>
	<path class="st0" d="M25.8,16.6C25.8,16.6,25.8,16.6,25.8,16.6c1.4,0,2.8-0.6,3.7-1.5c1-1,1.5-2.2,1.5-3.6c0-2.8-2.4-5.1-5.2-5.1
		c0,0,0,0,0,0C24.3,6.4,23,7,22,7.9c-1,1-1.5,2.2-1.5,3.6c0,1.4,0.6,2.6,1.5,3.6C23.1,16.1,24.4,16.6,25.8,16.6z"/>
	<path class="st0" d="M26,17.6h-0.5c-2.4,0-4.5,0.8-6.1,2.2c0.4,0.3,0.8,0.6,1.2,0.9c1.1,1,1.9,2.2,2.5,3.5c0.5,1.2,0.8,2.4,0.9,3.7
		h11.2V26C35.2,21.4,31.1,17.6,26,17.6z"/>
	<path class="st0" d="M16.4,21.1c-1.6-1.1-3.7-1.8-5.9-1.8H10c-5.4,0-9.8,4.1-9.8,9.1v1.1h20.2v-1.1c0-0.2,0-0.4,0-0.6
		C20.2,25.1,18.7,22.7,16.4,21.1z"/>
</g>
</svg>
