<?xml version="1.0" encoding="utf-8"?>
<!-- Generator: Adobe Illustrator 22.0.0, SVG Export Plug-In . SVG Version: 6.00 Build 0)  -->
<svg version="1.1" id="Layer_1" xmlns="http://www.w3.org/2000/svg" xmlns:xlink="http://www.w3.org/1999/xlink" x="0px" y="0px"
	 viewBox="0 0 35 35" style="enable-background:new 0 0 35 35;" xml:space="preserve">
<style type="text/css">
	.st0{fill:none;stroke:#765AFF;stroke-width:2;stroke-miterlimit:10;}
</style>
<path class="st0" d="M21.7,16.5L21.7,16.5c1.8-1.3,2.9-3.5,2.9-5.7c0-3.9-3.2-7.1-7.1-7.1s-7.1,3.2-7.1,7.1c0,2.3,1.1,4.4,2.9,5.7
	C6,19.1,4.9,28,4.7,30.6c0,0.2,0.1,0.4,0.2,0.5c0.1,0.1,0.3,0.2,0.5,0.2h24.3c0.2,0,0.4-0.1,0.5-0.2c0.1-0.1,0.2-0.3,0.2-0.5
	C30.1,28,29,19.1,21.7,16.5L21.7,16.5z M21.7,16.5"/>
<path class="st0" d="M29.8,17.8c1.2-0.9,1.9-2.3,1.9-3.8c0-2.6-2.1-4.7-4.7-4.7c-0.7,0-1.4,0.2-2.1,0.5c0.1,0.6,0.2,1.3,0.2,1.9
	c0,1.9-0.6,3.7-1.7,5.2c4.2,2.6,6,7.2,6.8,10.7h4.8c0.1,0,0.2-0.1,0.3-0.1c0.1-0.1,0.1-0.2,0.1-0.3C35.4,25.3,34.6,19.5,29.8,17.8
	L29.8,17.8z M29.8,17.8"/>
<path class="st0" d="M11.5,16.9c-1.1-1.5-1.6-3.3-1.6-5.2c0-0.7,0.1-1.3,0.2-1.9C9.5,9.5,8.8,9.3,8,9.3c-2.6,0-4.7,2.1-4.7,4.7
	c0,1.5,0.7,2.9,1.9,3.8c-4.8,1.7-5.6,7.6-5.7,9.3c0,0.1,0,0.2,0.1,0.3c0.1,0.1,0.2,0.1,0.3,0.1h4.8C5.5,24.1,7.4,19.5,11.5,16.9
	L11.5,16.9z M11.5,16.9"/>
</svg>
