<?xml version="1.0" encoding="utf-8"?>
<!-- Generator: Adobe Illustrator 22.0.0, SVG Export Plug-In . SVG Version: 6.00 Build 0)  -->
<svg version="1.1" id="Layer_1" xmlns="http://www.w3.org/2000/svg" xmlns:xlink="http://www.w3.org/1999/xlink" x="0px" y="0px"
	 viewBox="0 0 35 35" style="enable-background:new 0 0 35 35;" xml:space="preserve">
<style type="text/css">
	.st0{fill:#765AFF;}
</style>
<path class="st0" d="M30.9,31"/>
<path class="st0" d="M32.2,7.7V1c0-0.3-0.2-0.6-0.4-0.8C31.6,0,31.2-0.1,30.9,0l-20,6.4c-0.4,0.1-0.7,0.5-0.7,0.9v19.6
	c-1-0.7-2.4-1.1-3.8-1.1c-1.5,0-2.9,0.4-4,1.3c-1.2,0.9-1.8,2.1-1.8,3.3s0.6,2.5,1.8,3.3c1.1,0.8,2.5,1.3,4,1.3s2.9-0.4,4-1.3
	c1.2-0.9,1.8-2.1,1.8-3.3V14.8l18-5.7v11.5c-1-0.7-2.4-1.1-3.8-1.1c-1.5,0-2.9,0.4-4,1.3c-1.2,0.9-1.8,2.1-1.8,3.3
	c0,1.3,0.6,2.5,1.8,3.3c1.1,0.8,2.5,1.3,4,1.3c1.5,0,2.9-0.4,4-1.3c1.2-0.9,1.8-2.1,1.8-3.3V7.7z M6.4,33c-2.1,0-3.8-1.2-3.8-2.6
	c0-1.4,1.7-2.6,3.8-2.6c2.1,0,3.8,1.2,3.8,2.6C10.2,31.8,8.5,33,6.4,33L6.4,33z M12.2,12.7V8.1l18-5.7V7L12.2,12.7z M26.5,26.6
	c-2.1,0-3.8-1.2-3.8-2.6c0-1.4,1.7-2.6,3.8-2.6c2.1,0,3.8,1.2,3.8,2.6C30.2,25.4,28.5,26.6,26.5,26.6L26.5,26.6z M26.5,26.6"/>
</svg>
