<?xml version="1.0" encoding="utf-8"?>
<!-- Generator: Adobe Illustrator 22.0.0, SVG Export Plug-In . SVG Version: 6.00 Build 0)  -->
<svg version="1.1" id="Layer_1" xmlns="http://www.w3.org/2000/svg" xmlns:xlink="http://www.w3.org/1999/xlink" x="0px" y="0px"
	 viewBox="0 0 35 35" style="enable-background:new 0 0 35 35;" xml:space="preserve">
<style type="text/css">
	.st0{fill:#765AFF;}
</style>
<path class="st0" d="M29.9,22.6c-1.9-1.9-4.2-3.3-6.7-4.2c2.7-1.8,4.4-4.9,4.4-8.3C27.6,4.5,23.1,0,17.5,0S7.4,4.5,7.4,10.1
	c0,3.5,1.7,6.5,4.4,8.3c-2.5,0.9-4.7,2.3-6.7,4.2C1.8,25.9,0,30.3,0,35h2.7c0-8.1,6.6-14.8,14.8-14.8S32.3,26.9,32.3,35H35
	C35,30.3,33.2,25.9,29.9,22.6z M10.1,10.1c0-4.1,3.3-7.4,7.4-7.4s7.4,3.3,7.4,7.4s-3.3,7.4-7.4,7.4S10.1,14.2,10.1,10.1z"/>
</svg>
